<svg width="188" height="58" viewBox="0 0 188 58" fill="none" xmlns="http://www.w3.org/2000/svg">
<g id="full">
<path id="Vector" fill-rule="evenodd" clip-rule="evenodd" d="M0.749032 7.35525C0.448605 7.40684 0.0022559 7.11453 0.0022559 6.52131C0.0022559 5.9281 0.0537577 2.05932 0.0022559 1.70684C-0.0406623 1.36294 0.543025 1.13082 0.543025 1.13082H6.90349C6.90349 1.13082 7.50435 0.984663 7.39276 1.8186C7.28976 2.65254 6.99791 6.66747 6.99791 6.66747C6.99791 6.66747 6.85199 7.36385 6.1138 7.36385H0.749032V7.35525Z" fill="#0072BB"/>
<path id="Vector_2" fill-rule="evenodd" clip-rule="evenodd" d="M8.48222 25.2977C8.27621 25.547 7.26334 26.9312 5.14319 26.9312C3.22904 26.9312 0.173265 25.5298 0.0273438 20.7326V9.88278C0.0273438 9.52169 0.104596 9.2036 0.696867 9.2036H5.9243C6.32773 9.25518 6.55949 9.15201 6.55949 9.59047C6.55949 10.0289 6.32773 13.8547 6.26764 14.5081C6.20756 15.2733 6.79983 16.2792 7.4436 15.3421C8.0702 14.4135 10.4307 10.3814 10.8685 9.74522C11.3062 9.10903 11.6496 9.2036 12.1903 9.2036H23.6581C24.1903 9.2036 24.5336 9.40133 24.5851 9.83979C24.6366 10.2783 24.5422 12.7887 24.4821 13.2185C24.4134 13.7516 24.731 14.766 25.2718 13.9493C25.8555 13.0638 27.2203 10.2611 27.5121 9.8226C27.804 9.39274 28.0443 9.1864 28.6366 9.1864H34.1215C34.5679 9.1864 34.7567 9.62486 34.4649 10.1149L25.3662 24.8507C24.5765 26.2176 22.6109 27.3267 20.6538 26.8366C18.6882 26.3466 17.3234 24.3692 17.4693 22.1511C17.6238 19.9416 17.8298 13.7086 17.907 13.0294C17.9929 12.3158 17.2032 11.2326 16.2418 12.5909L8.44788 25.3063L8.48222 25.2977Z" fill="#0072BB"/>
<path id="Vector_3" fill-rule="evenodd" clip-rule="evenodd" d="M12.9902 7.32939H24.0116C24.6983 7.32939 24.5009 6.71898 24.5009 6.46966C24.5009 6.22034 24.1661 0.855631 20.0975 0.79545C16.3808 0.735269 13.1362 5.83346 12.7499 6.52124C12.5525 6.82215 12.4409 7.32079 12.9902 7.32939Z" fill="#0072BB"/>
<path id="Vector_4" fill-rule="evenodd" clip-rule="evenodd" d="M29.4529 7.34667C29.4529 7.34667 29.058 7.15753 29.3069 6.70187C29.5559 6.26341 32.3713 1.12224 32.3713 1.12224H39.0837C39.3841 1.12224 39.8734 1.05346 39.5301 1.84441C39.1781 2.63536 36.9378 6.28921 36.6545 6.65889C36.3455 7.06296 36.3198 7.29509 35.676 7.33807H29.4529V7.34667Z" fill="#0072BB"/>
<path id="Vector_5" fill-rule="evenodd" clip-rule="evenodd" d="M51.5304 2.54079C52.6119 4.93943 53.2471 6.41816 53.393 6.84802C53.5475 7.29508 53.3501 7.39825 52.9982 7.34667H43.127C42.6978 7.31228 42.7837 6.90821 42.9296 6.6159C42.9296 6.6159 44.3716 3.40911 45.8652 1.74984C46.8351 0.46884 50.3802 0.219518 51.5304 2.54079Z" fill="#0072BB"/>
<path id="Vector_6" fill-rule="evenodd" clip-rule="evenodd" d="M42.0531 9.19502H53.7011C53.7011 9.19502 54.3878 9.13484 54.7568 10.0547C55.1259 10.9575 61.6409 26.381 61.6409 26.381C61.6409 26.381 61.8898 26.914 61.4435 26.9484H53.7096C53.2375 26.9484 52.9285 26.3552 52.8255 26.0887C52.5766 25.6072 49.8298 18.7638 49.4007 17.7407C48.9543 16.7004 48.465 16.1158 47.1947 16.0643C45.9243 16.0127 45.435 16.6575 45.0917 17.1991C44.7483 17.7407 41.4608 26.1747 41.2205 26.5701C40.9801 26.957 40.5853 26.957 40.5853 26.957H33.5896C33.2892 26.957 32.8514 26.5701 33.2377 25.8823C33.6325 25.2032 41.2806 9.8914 41.2806 9.8914C41.3578 9.71086 41.7097 9.20362 42.0702 9.20362" fill="#0072BB"/>
<path id="Vector_7" d="M187.889 29.0461H0.00195312V36.3796H187.889V29.0461Z" fill="#0072BB"/>
<path id="Vector_8" d="M11.4868 54.0556H8.86884L7.2122 47.685H7.17787L5.5899 54.0556H2.94614L0.00195312 44.5642H2.69721L4.40535 51.0036H4.43969L5.98474 44.5642H8.474L10.0534 50.9864H10.0877L11.7959 44.5642H14.4225L11.4868 54.0556Z" fill="#0072BB"/>
<path id="Vector_9" d="M15.3934 47.4873C15.5393 45.0457 17.6767 44.3149 19.7625 44.3149C21.6165 44.3149 23.8483 44.7362 23.8483 47.0145V51.9493C23.8483 52.8091 23.9341 53.6774 24.1745 54.0643H21.5822C21.4964 53.772 21.4191 53.4625 21.4019 53.1444C20.5951 54.0041 19.402 54.3222 18.2689 54.3222C16.5093 54.3222 15.1016 53.4195 15.1016 51.4765C15.1016 49.3272 16.681 48.8199 18.2689 48.5964C19.8311 48.3557 21.2904 48.4158 21.2904 47.3498C21.2904 46.2321 20.535 46.0688 19.6337 46.0688C18.6638 46.0688 18.0286 46.4729 17.9427 47.4959H15.3934V47.4873ZM21.2904 49.4131C20.8612 49.8 19.9599 49.8172 19.1702 49.9634C18.3805 50.1267 17.6595 50.4018 17.6595 51.3561C17.6595 52.3104 18.3977 52.5683 19.2217 52.5683C21.2131 52.5683 21.2904 50.952 21.2904 50.3846V49.4131Z" fill="#0072BB"/>
<path id="Vector_10" d="M29.0495 44.5643H30.9207V46.3096H29.0495V51.0037C29.0495 51.8806 29.2641 52.1041 30.131 52.1041C30.3971 52.1041 30.6546 52.087 30.9207 52.0354V54.0729C30.4915 54.1503 29.9336 54.1675 29.4272 54.1675C27.8649 54.1675 26.5001 53.7978 26.5001 51.9064V46.3096H24.9551V44.5643H26.5001V41.7186H29.0495V44.5643Z" fill="#0072BB"/>
<path id="Vector_11" d="M34.2505 49.9462C34.3192 51.5969 35.1175 52.3449 36.5338 52.3449C37.5552 52.3449 38.3878 51.7001 38.5509 51.1154H40.7998C40.0788 53.3507 38.5509 54.305 36.4479 54.305C33.5123 54.305 31.7012 52.2503 31.7012 49.3186C31.7012 46.3869 33.6239 44.3064 36.4479 44.3064C39.6153 44.3064 41.1432 47.0231 40.9629 49.9376H34.2591L34.2505 49.9462ZM38.405 48.2955C38.1732 46.9716 37.6153 46.2752 36.3707 46.2752C34.7484 46.2752 34.2848 47.5562 34.2505 48.2955H38.405Z" fill="#0072BB"/>
<path id="Vector_12" d="M42.4648 44.5643H44.894V46.3268H44.9283C45.3919 45.1317 46.6537 44.3064 47.8983 44.3064C48.0785 44.3064 48.2931 44.3408 48.4562 44.401V46.8254C48.2245 46.7738 47.8468 46.7308 47.5378 46.7308C45.6665 46.7308 45.0228 48.1064 45.0228 49.7743V54.0471H42.4734V44.5557L42.4648 44.5643Z" fill="#0072BB"/>
<path id="Vector_13" d="M47.9336 51.2271H50.7576V54.0556C50.7576 55.7407 49.4958 56.8669 47.9508 57.0991V55.7751C48.7061 55.6461 49.2641 54.8552 49.2297 54.047H47.9336V51.2185V51.2271Z" fill="#0072BB"/>
<path id="Vector_14" d="M61.0397 44.5643H62.9109V46.3096H61.0397V51.0037C61.0397 51.8806 61.2543 52.1041 62.1212 52.1041C62.3873 52.1041 62.6448 52.087 62.9109 52.0354V54.0729C62.4818 54.1503 61.9238 54.1675 61.4174 54.1675C59.8552 54.1675 58.4904 53.7978 58.4904 51.9064V46.3096H56.9453V44.5643H58.4904V41.7186H61.0397V44.5643Z" fill="#0072BB"/>
<path id="Vector_15" d="M64.1309 40.9534H66.6802V45.8882H66.7317C67.3755 44.8221 68.4913 44.3063 69.4441 44.3063C72.1565 44.3063 72.8432 45.8624 72.8432 48.2181V54.0556H70.2939V48.6995C70.2939 47.1434 69.8475 46.3697 68.6544 46.3697C67.2725 46.3697 66.6802 47.1606 66.6802 49.0864V54.0642H64.1309V40.962V40.9534Z" fill="#0072BB"/>
<path id="Vector_16" d="M76.895 49.9462C76.9637 51.5969 77.762 52.3449 79.1783 52.3449C80.1997 52.3449 81.0323 51.7001 81.1954 51.1154H83.4444C82.7233 53.3507 81.1954 54.305 79.0925 54.305C76.1568 54.305 74.3457 52.2503 74.3457 49.3186C74.3457 46.3869 76.2684 44.3064 79.0925 44.3064C82.2598 44.3064 83.7877 47.0231 83.6074 49.9376H76.895V49.9462ZM81.0495 48.2955C80.8178 46.9716 80.2598 46.2752 79.0152 46.2752C77.3929 46.2752 76.9294 47.5562 76.895 48.2955H81.0495Z" fill="#0072BB"/>
<path id="Vector_17" d="M92.7396 40.9534H90.1816V54.0556H92.7396V40.9534Z" fill="#0072BB"/>
<path id="Vector_18" d="M97.3665 43.1027H94.8086V40.9534H97.3665V43.1027ZM94.8172 44.5728H97.3751V54.0642H94.8172V44.5728Z" fill="#0072BB"/>
<path id="Vector_19" d="M108.448 57.3914H105.89V52.8606H105.856C105.264 53.8923 104.045 54.3136 102.92 54.3136C101.212 54.3136 98.9805 53.0498 98.9805 49.3787C98.9805 46.7738 100.328 44.3149 103.152 44.3149C104.302 44.3149 105.401 44.7362 105.976 45.7851H106.01V44.5729H108.44V57.4L108.448 57.3914ZM103.753 52.3448C105.41 52.3448 105.985 50.9177 105.985 49.353C105.985 47.7882 105.41 46.2665 103.804 46.2665C102.199 46.2665 101.538 47.771 101.538 49.31C101.538 50.8489 102.079 52.3362 103.753 52.3362" fill="#0072BB"/>
<path id="Vector_20" d="M119.092 54.0557H116.663V52.7317H116.611C115.968 53.7977 114.852 54.305 113.77 54.305C111.058 54.305 110.371 52.7489 110.371 50.3932V44.5557H112.929V49.9118C112.929 51.4765 113.375 52.2416 114.56 52.2416C115.942 52.2416 116.534 51.4507 116.534 49.5249V44.5557H119.092V54.0385V54.0557Z" fill="#0072BB"/>
<path id="Vector_21" d="M123.658 43.1027H121.1V40.9534H123.658V43.1027ZM121.1 44.5728H123.658V54.0642H121.1V44.5728Z" fill="#0072BB"/>
<path id="Vector_22" d="M132.301 52.8434H132.267C131.675 53.8751 130.628 54.3135 129.443 54.3135C126.636 54.3135 125.271 51.8547 125.271 49.2326C125.271 46.6104 126.653 44.3149 129.392 44.3149C130.49 44.3149 131.572 44.7964 132.147 45.7249H132.181V40.9534H134.731V54.0556H132.301V52.8434ZM130.07 46.2751C128.396 46.2751 127.821 47.7452 127.821 49.3013C127.821 50.8574 128.482 52.3448 130.07 52.3448C131.761 52.3448 132.267 50.8402 132.267 49.2841C132.267 47.728 131.726 46.2751 130.07 46.2751Z" fill="#0072BB"/>
<path id="Vector_23" d="M146.163 44.3064C149.09 44.3064 150.979 46.2838 150.979 49.3186C150.979 52.3535 149.09 54.305 146.163 54.305C143.236 54.305 141.365 52.3191 141.365 49.3186C141.365 46.3182 143.254 44.3064 146.163 44.3064ZM146.163 52.3449C147.906 52.3449 148.43 50.8231 148.43 49.3186C148.43 47.8141 147.915 46.2752 146.163 46.2752C144.412 46.2752 143.915 47.7969 143.915 49.3186C143.915 50.8403 144.438 52.3449 146.163 52.3449Z" fill="#0072BB"/>
<path id="Vector_24" d="M153.194 46.3095H151.666V44.5642H153.194V43.8335C153.194 42.1656 154.215 40.9534 156.301 40.9534C156.748 40.9534 157.22 41.005 157.649 41.0307V42.9737C157.34 42.9393 157.039 42.9221 156.713 42.9221C156.026 42.9221 155.743 43.2145 155.743 44.0054V44.5728H157.503V46.3181H155.743V54.0642H153.194V46.3181V46.3095Z" fill="#0072BB"/>
<path id="Vector_25" d="M166.249 40.9534H163.691V54.0556H166.249V40.9534Z" fill="#0072BB"/>
<path id="Vector_26" d="M170.886 43.1027H168.328V40.9534H170.886V43.1027ZM168.328 44.5728H170.886V54.0642H168.328V44.5728Z" fill="#0072BB"/>
<path id="Vector_27" d="M173.444 46.3095H171.916V44.5642H173.444V43.8335C173.444 42.1656 174.465 40.9534 176.551 40.9534C176.998 40.9534 177.47 41.005 177.899 41.0307V42.9737C177.59 42.9393 177.289 42.9221 176.963 42.9221C176.277 42.9221 175.993 43.2145 175.993 44.0054V44.5728H177.753V46.3181H175.993V54.0642H173.444V46.3181V46.3095Z" fill="#0072BB"/>
<path id="Vector_28" d="M181.161 49.9462C181.238 51.5969 182.028 52.3449 183.444 52.3449C184.465 52.3449 185.298 51.7001 185.461 51.1154H187.71C186.989 53.3507 185.461 54.305 183.358 54.305C180.431 54.305 178.611 52.2503 178.611 49.3186C178.611 46.3869 180.534 44.3064 183.358 44.3064C186.525 44.3064 188.053 47.0231 187.873 49.9376H181.161V49.9462ZM185.315 48.2955C185.083 46.9716 184.525 46.2752 183.281 46.2752C181.659 46.2752 181.195 47.5562 181.161 48.2955H185.315Z" fill="#0072BB"/>
<path id="Vector_29" d="M74.7143 9.19507H67.8732C67.5603 9.19507 67.3066 9.44911 67.3066 9.76249V26.3896C67.3066 26.703 67.5603 26.9571 67.8732 26.9571H74.7143C75.0272 26.9571 75.2808 26.703 75.2808 26.3896V9.76249C75.2808 9.44911 75.0272 9.19507 74.7143 9.19507Z" fill="#0072BB"/>
<path id="Vector_30" fill-rule="evenodd" clip-rule="evenodd" d="M122.105 25.5041C122.2 25.8308 122.509 26.9054 122.054 26.9484H114.414C114.105 26.9484 113.848 26.7077 113.848 26.3982V9.77103C113.848 9.46152 114.097 9.19501 114.414 9.19501H132.285C132.285 9.19501 132.826 9.17781 132.74 9.71944C132.637 10.3298 131.848 13.6656 127.59 15.2733C127.59 15.2733 126.551 15.5484 127.101 16.1588L137.298 26.3036C137.418 26.4498 137.951 26.8968 137.247 26.9484H127.496L122.792 20.4317C122.792 20.4317 122.157 19.7955 121.47 20.3285C120.783 20.8701 121.032 21.5063 121.23 22.3489L122.114 25.5041H122.105Z" fill="#0072BB"/>
<path id="Vector_31" d="M58.6377 1.11365H83.9508C84.4058 1.11365 84.7663 1.48333 84.7663 1.93039V6.52994C84.7663 6.977 84.3972 7.34668 83.9508 7.34668H58.6377C58.1914 7.34668 57.8223 6.977 57.8223 6.52994V1.93039C57.8223 1.48333 58.1914 1.11365 58.6377 1.11365Z" fill="#0072BB"/>
<path id="Vector_32" d="M88.4053 1.11365H108.997C109.444 1.11365 109.813 1.48333 109.813 1.93039V6.52994C109.813 6.977 109.444 7.34668 108.997 7.34668H88.4053C87.9504 7.34668 87.5898 6.977 87.5898 6.52994V1.93039C87.5898 1.48333 87.9589 1.11365 88.4053 1.11365Z" fill="#0072BB"/>
<path id="Vector_33" fill-rule="evenodd" clip-rule="evenodd" d="M132.929 7.14034C132.972 6.25482 132.74 4.29464 131.753 2.86749C130.774 1.44894 128.654 1.11365 128.182 1.11365H114.688C114.242 1.11365 113.873 1.45754 113.873 1.91319V6.52994C113.873 6.98559 114.234 7.34668 114.688 7.34668H132.294C132.371 7.34668 132.92 7.36387 132.937 7.14034" fill="#0072BB"/>
<path id="Vector_34" fill-rule="evenodd" clip-rule="evenodd" d="M136.345 7.34661H158.165C158.611 7.34661 158.98 6.98552 158.98 6.52987V1.91312C158.98 1.46607 158.611 1.11358 158.165 1.11358H144.01C142.208 1.08779 139.023 1.97331 136.062 6.44389C135.744 6.98552 135.676 7.31222 136.337 7.34661" fill="#0072BB"/>
<path id="Vector_35" fill-rule="evenodd" clip-rule="evenodd" d="M109.813 20.2339C109.813 21.0249 109.813 26.1231 109.813 26.1231C109.813 26.5787 109.444 26.9398 108.997 26.9398H88.4053C87.9504 26.9398 87.5898 26.5701 87.5898 26.1231V10.0031C87.5898 9.55609 87.9589 9.18641 88.4053 9.18641H104.774C104.774 9.18641 105.573 9.09184 105.573 9.77962V14.19C105.573 14.8262 105.452 15.2819 104.568 15.2819H95.7443C95.1949 15.2819 94.9203 15.385 94.9203 15.8579V18.867C94.9203 19.3054 94.9632 19.5031 95.7014 19.5031H108.98C109.418 19.5031 109.813 19.6063 109.813 20.2339Z" fill="#0072BB"/>
<path id="Vector_36" fill-rule="evenodd" clip-rule="evenodd" d="M187.598 10.0719C187.899 11.2326 188.036 12.4534 187.993 13.7086C187.761 21.2054 181.255 27.2837 173.461 27.2837C165.667 27.2837 159.538 21.2054 159.77 13.7086C159.813 12.4534 160.028 11.2412 160.388 10.0891C160.44 9.8828 160.731 9.20361 161.195 9.20361H167.435C167.521 9.20361 167.993 9.32398 167.53 10.0891C166.86 11.1724 166.457 12.419 166.414 13.7516C166.362 15.557 166.997 17.2679 168.225 18.5747C169.573 20.0104 171.452 20.8014 173.504 20.8014C177.701 20.8014 181.221 17.4914 181.341 13.4249C181.375 12.2385 181.109 11.095 180.577 10.0805C180.448 9.82262 180.199 9.20361 180.706 9.20361H186.894C187.066 9.20361 187.435 9.44434 187.581 10.0719" fill="#0072BB"/>
<path id="Vector_37" fill-rule="evenodd" clip-rule="evenodd" d="M186.472 6.53849C184.009 2.85025 179.545 0.400024 174.352 0.400024C169.159 0.400024 164.524 2.85885 161.82 6.54708C161.657 6.77061 161.434 7.40681 162.327 7.40681H186.112C186.249 7.40681 186.936 7.4326 186.464 6.53849" fill="#0072BB"/>
<path id="Vector_38" fill-rule="evenodd" clip-rule="evenodd" d="M142.524 10.2955C141.846 11.224 141.4 12.3073 141.288 13.4765C140.971 16.8295 143.537 19.5376 147.031 19.5376H158.164C158.602 19.5376 158.996 19.6064 158.996 20.234C158.996 21.0249 158.996 26.1231 158.996 26.1231C158.996 26.5702 158.627 26.9485 158.181 26.9485H144.267C139.4 26.9399 135.692 21.8933 135.246 20.7326C132.396 15.153 134.688 10.2697 134.833 9.92584C135.031 9.49597 135.443 9.20367 135.735 9.19507H142.481C142.688 9.19507 143.168 9.51317 142.542 10.2955" fill="#0072BB"/>
</g>
</svg>
